<svg xmlns="http://www.w3.org/2000/svg" viewBox="0 0 256 256">
  <defs>
    <linearGradient id="bg" x1="0" y1="0" x2="1" y2="1"><stop stop-color="#2b0b22"/><stop offset="1" stop-color="#070205"/></linearGradient>
    <radialGradient id="core"><stop stop-color="#ff9ac8"/><stop offset=".52" stop-color="#ed2f8a"/><stop offset="1" stop-color="#511039"/></radialGradient>
  </defs>
  <rect x="8" y="8" width="240" height="240" rx="68" fill="url(#bg)" stroke="#6f2853" stroke-width="5"/>
  <g fill="none" stroke-linecap="round">
    <path d="M128 128c8-31 37-50 72-42M128 128c31-8 59 9 74 40M128 128c22 24 19 58-5 85M128 128c-9 31-39 49-73 40M128 128c-30 6-57-12-69-43M128 128c-18-25-12-60 13-83M128 128c10-27 35-38 57-36" stroke="#ff3f93" stroke-width="11" opacity=".86"/>
    <path d="M128 128c7-22 28-35 52-29M128 128c22-4 42 10 49 32M128 128c10 21 1 44-18 57M128 128c-21 11-45 2-57-18M128 128c-13-20-6-45 13-59" stroke="#ffe0ef" stroke-width="4" opacity=".58"/>
  </g>
  <circle cx="128" cy="128" r="31" fill="url(#core)" stroke="#b9fff1" stroke-opacity=".62" stroke-width="3"/>
</svg>
